<svg width="27" height="27" viewBox="0 0 27 27" fill="none" xmlns="http://www.w3.org/2000/svg">
<g clip-path="url(#clip0_17000_22501)">
<path d="M21.4822 9.52052C21.4322 8.56052 21.2722 8.04052 21.1422 7.70052C20.9622 7.24052 20.7522 6.92052 20.4022 6.57052C20.0522 6.22052 19.7322 6.01052 19.2722 5.84052C18.9222 5.71052 18.4022 5.55052 17.4522 5.51052C16.4222 5.46052 16.1022 5.45052 13.4922 5.46052C10.8822 5.47052 10.5622 5.48052 9.53223 5.52052C8.57223 5.57052 8.06223 5.73052 7.71223 5.86052C7.25223 6.04052 6.93223 6.25052 6.58223 6.60052C6.24223 6.94052 6.02223 7.27052 5.85223 7.73052C5.72223 8.08052 5.56223 8.60052 5.52223 9.55052C5.47223 10.5805 5.46223 10.8905 5.47223 13.5105C5.47223 16.1305 5.49224 16.4405 5.53224 17.4705C5.57224 18.4305 5.74223 18.9505 5.87223 19.2905C6.05223 19.7505 6.26224 20.0805 6.61224 20.4205C6.95224 20.7605 7.28223 20.9805 7.74223 21.1505C8.09223 21.2805 8.61224 21.4405 9.56224 21.4805C10.5922 21.5205 10.9022 21.5405 13.5222 21.5305C16.1422 21.5205 16.4522 21.5105 17.4822 21.4705C18.4422 21.4205 18.9522 21.2605 19.3022 21.1305C19.7622 20.9505 20.0822 20.7405 20.4322 20.3905C20.7822 20.0405 20.9922 19.7205 21.1622 19.2605C21.2922 18.9105 21.4522 18.3905 21.4922 17.4405C21.5422 16.4105 21.5422 16.1005 21.5422 13.4805C21.5422 10.8605 21.5222 10.5505 21.4722 9.52052H21.4822ZM13.5122 18.5405C10.7322 18.5405 8.47223 16.3005 8.46223 13.5105C8.46223 10.7305 10.7122 8.47052 13.4922 8.46052C16.2722 8.46052 18.5322 10.7105 18.5422 13.4905C18.5522 16.2705 16.2922 18.5305 13.5122 18.5405ZM18.7322 9.43052C18.0822 9.43052 17.5522 8.90052 17.5522 8.25052C17.5522 7.60052 18.0722 7.07052 18.7222 7.07052C19.3722 7.07052 19.9022 7.60052 19.9022 8.25052C19.9022 8.90052 19.3722 9.43052 18.7222 9.43052H18.7322Z" fill="white"/>
<path d="M13.4866 10.2305C11.6766 10.2305 10.2166 11.7005 10.2266 13.5105C10.2266 15.3205 11.6966 16.7805 13.5066 16.7705C15.3166 16.7705 16.7766 15.3005 16.7666 13.4905C16.7666 11.6805 15.2966 10.2205 13.4866 10.2305Z" fill="white"/>
<path d="M0 0V27H27V0H0ZM23.26 17.53C23.21 18.57 23.05 19.29 22.81 19.91C22.56 20.56 22.23 21.1 21.68 21.65C21.14 22.2 20.59 22.53 19.94 22.78C19.32 23.02 18.61 23.19 17.56 23.24C16.51 23.29 16.18 23.3 13.52 23.31C10.86 23.31 10.52 23.31 9.48 23.26C8.44 23.21 7.72 23.05 7.1 22.81C6.45 22.56 5.91 22.23 5.36 21.68C4.81 21.14 4.48 20.59 4.23 19.94C3.99 19.32 3.82 18.6 3.77 17.56C3.72 16.51 3.71 16.18 3.7 13.52C3.7 10.86 3.7 10.52 3.75 9.48C3.8 8.44 3.96 7.72 4.2 7.1C4.45 6.45 4.78 5.91 5.33 5.36C5.87 4.81 6.42 4.48 7.07 4.23C7.69 3.99 8.41 3.82 9.45 3.77C10.5 3.72 10.83 3.71 13.49 3.7C16.15 3.69 16.49 3.7 17.53 3.75C18.57 3.8 19.29 3.96 19.91 4.2C20.56 4.45 21.1 4.78 21.65 5.33C22.2 5.87 22.53 6.42 22.78 7.07C23.02 7.69 23.19 8.4 23.24 9.45C23.29 10.5 23.3 10.83 23.31 13.49C23.32 16.15 23.31 16.49 23.26 17.54V17.53Z" fill="white"/>
</g>
<defs>
<clipPath id="clip0_17000_22501">
<rect width="27" height="27" fill="white"/>
</clipPath>
</defs>
</svg>
