<svg width="169" height="48" viewBox="0 0 169 48" fill="none" xmlns="http://www.w3.org/2000/svg">
<path fill-rule="evenodd" clip-rule="evenodd" d="M7.09013 1.42124V20.9006H1.34112C0.318868 20.9006 0.0562709 21.8295 0 22.8142V24.3655C0 25.1551 0.412653 26.2326 1.16293 26.2326H7.09013V45.8885C7.09013 46.6966 8.0655 47.1239 9.19091 47.2261H10.1944C11.348 47.1239 12.3796 46.6966 12.3796 45.9814V26.2326H16.5061V45.9814C16.5061 46.7245 17.5471 47.1425 18.7195 47.2261H19.6385C20.8202 47.1425 21.8894 46.7245 21.8894 45.9814V26.2326H25.9221V46.065C25.9221 46.7524 26.9538 47.1518 28.0979 47.2261H28.9232C30.0768 47.1425 31.1272 46.7431 31.1272 45.9814V26.2326H35.2537L35.2819 46.0557C35.4319 46.8638 36.3885 47.1704 37.4014 47.2261H38.0673C38.6862 47.1982 39.2677 47.0868 39.6522 46.9567C40.1493 46.7895 40.5432 46.4737 40.5432 45.8049V26.2326H46.461C47.774 26.2326 47.6333 23.9196 47.6333 22.9442C47.6333 22.006 47.2863 20.9006 46.3766 20.9006H40.5432V0.984651C40.5432 0.771001 40.2524 0.418012 39.9242 0.260097C39.6241 0.130048 39.1552 0.0464458 38.6393 0H37.242C36.7261 0.0464458 36.2666 0.130048 35.9665 0.269386C35.6289 0.418012 35.4788 0.55735 35.3475 0.882471C35.1318 1.43982 35.2537 8.60177 35.2537 9.52139C35.2537 13.3114 35.2537 17.1106 35.2537 20.9006C34.3346 20.9006 31.8118 20.7241 31.1272 20.9935L31.1178 1.07754C31.024 0.390145 30.2175 0.0928916 29.3078 0H27.826C27.2726 0.055735 26.8131 0.148627 26.6161 0.241518C26.3535 0.352988 25.9221 0.678109 25.9221 0.984651V20.9006H21.8894V1.16115C21.8894 0.278675 20.8015 0.0464458 19.7698 0H18.2974C17.519 0 16.5061 0.427302 16.5061 1.16115V20.9006H12.3796V1.24475C12.3796 0.464458 11.5637 0.11147 10.5977 0H9.04086C8.38436 0.0650241 7.83103 0.204362 7.60595 0.343699C7.29646 0.538772 7.09013 0.928916 7.09013 1.42124Z" fill="#E0081C"/>
<path fill-rule="evenodd" clip-rule="evenodd" d="M154.192 37.5285H144.325V25.7963H153.029C158.206 25.7963 160.109 26.9296 160.109 32.1036C160.109 33.2369 159.969 34.6767 159.434 35.6149C158.534 37.222 156.358 37.5285 154.192 37.5285ZM144.325 20.0463L144.232 19.3868C144.25 17.436 144.138 10.1348 144.288 9.47522C144.851 9.33589 150.562 9.42878 151.95 9.42878L154.379 9.52167C155.336 9.52167 156.527 9.95826 157.08 10.3949C158.534 11.5374 158.553 14.3613 158.318 16.0984C158.159 17.2038 157.887 18.012 157.221 18.6529C155.683 20.1578 153.807 20.102 151.5 20.102C150.45 20.102 144.822 20.2228 144.325 20.0463ZM135.979 5.24865V42.1545C135.979 42.8976 136.738 43.4921 137.685 43.4921H154.192C160.072 43.4921 165.296 43.167 167.706 38.0394C168.794 35.7264 168.813 33.8314 168.813 31.2862V31.0354C168.813 28.5737 167.153 25.7127 165.605 24.3472C164.855 23.6876 162.238 22.4708 161.544 22.415C161.948 21.867 166.571 21.1145 166.571 14.8536C166.571 9.72603 165.146 6.02894 159.987 4.57055C158.834 4.24542 156.33 4.00391 155.176 4.00391H137.235C136.682 4.00391 135.979 4.6913 135.979 5.24865Z" fill="#002368"/>
<path fill-rule="evenodd" clip-rule="evenodd" d="M113.378 37.7049C111.596 37.7049 109.974 37.4819 108.445 36.8224C104.609 35.1689 103.727 31.1281 103.324 27.3196C102.874 23.0837 103.062 16.2376 105.04 12.9864C105.425 12.364 105.744 11.9739 106.269 11.4537C106.513 11.2122 106.747 11.0357 107.01 10.8499C110.011 8.75982 117.486 8.62049 120.356 11.5001C123.366 14.5191 123.516 19.591 123.516 23.7432C123.516 26.8087 123.01 31.2303 121.509 33.757C119.718 36.7667 116.792 37.7049 113.378 37.7049ZM94.9023 23.2974C94.9023 27.2638 95.5119 31.992 97.2376 35.4011C100.37 41.597 106.241 43.7521 113.294 43.7521C117.336 43.7521 120.909 43.074 124.013 41.2255C127.605 39.0889 129.406 35.912 130.541 32.0478L130.981 30.0877C132.032 24.0312 131.957 15.671 128.721 10.3111C126.527 6.67905 123.113 4.72833 118.921 3.93875C114.372 3.07485 108.52 3.25135 104.215 4.96984C101.533 6.0381 98.785 8.37897 97.5283 10.8778C96.1684 13.5995 95.7745 14.9929 95.315 17.9282C95.0805 19.4145 94.9023 21.8297 94.9023 23.2974Z" fill="#002368"/>
<path fill-rule="evenodd" clip-rule="evenodd" d="M57.8555 5.34095V28.7218L58.1087 32.2981C58.3244 33.7658 58.2963 34.063 58.7652 35.5679C59.2341 37.0727 60.1438 38.7262 61.363 39.748C61.5693 39.9152 61.6725 40.0453 61.8695 40.2218C65.0113 43.0085 70.0944 43.4915 74.1834 43.4915C77.7379 43.4915 82.8116 43.0642 85.7283 40.9742C85.9253 40.8348 86.1222 40.7141 86.3004 40.5655C87.5759 39.5622 88.1386 38.8563 88.9264 37.5651C90.0799 35.6886 90.502 32.3631 90.502 29.79V5.51744C90.502 3.44596 86.6755 3.80823 85.9534 3.71534C84.8843 3.56672 82.3521 3.92899 81.9863 5.15516C81.9863 5.18303 81.9582 5.26663 81.9582 5.2945L81.8925 5.87043C81.8175 10.0506 81.8925 14.3143 81.8925 18.5037C81.8925 22.7117 81.8925 26.9197 81.8925 31.1277C81.8925 32.1959 81.8269 33.0691 81.4892 33.8308C80.5514 35.9766 77.2596 36.9984 74.99 36.9984C72.2139 36.9984 71.1073 37.1563 68.5938 35.7815C67.4121 35.1406 66.5118 34.1838 66.3805 32.5396C66.1179 29.1398 66.2867 25.3405 66.2867 21.7921L66.2961 5.60104C66.2867 5.09943 66.1648 4.85791 65.921 4.62568L65.5552 4.37487C65.3395 4.24482 65.3395 4.24482 65.0675 4.14264C63.642 3.576 63.3419 3.65032 62.1508 3.72463C61.5975 3.7525 61.2036 3.39022 59.2529 4.05904C58.6526 4.2634 57.8555 4.59781 57.8555 5.34095Z" fill="#002368"/>
</svg>
