<svg width="170" height="35" viewBox="0 0 170 35" fill="none" xmlns="http://www.w3.org/2000/svg">
<path d="M169.429 23.9771C168.817 23.9771 168.334 23.5351 168.334 22.8007V13.6613C168.334 13.6613 168.028 8.16677 163.258 8.81958C161.235 9.10178 159.763 10.6828 159.083 11.628V8.68018C159.083 8.68018 157.883 9.42819 156.264 9.7002C154.642 9.9756 153.021 9.962 153.021 9.962V11.0806C153.021 11.0806 153.993 11.0534 154.357 11.2948C154.877 11.5736 154.84 12.1992 154.84 12.7977V17.653V22.6715C154.84 22.7633 154.84 22.8551 154.833 22.9401C154.775 23.5929 154.316 23.9771 153.745 23.9771H153.021V24.9563H160.756V23.9771H160.181C160.106 23.9771 160.035 23.9771 159.97 23.9737C159.627 23.9295 159.09 23.7221 159.086 22.8245C159.086 22.8143 159.086 22.8075 159.086 22.8007V17.653V13.0051C159.086 13.0051 159.229 11.7606 160.963 11.2778C162.799 10.7474 163.863 12.2672 163.863 14.2529V22.8109C163.863 22.9333 163.86 23.0455 163.85 23.1475C163.775 23.6541 163.353 23.9465 162.908 23.9771C162.864 23.9771 162.816 23.9771 162.765 23.9771H162.116V24.9563H170V23.9771H169.429Z" fill="#3F4C54"/>
<path d="M137.043 23.9771C137.043 23.9771 135.884 23.9771 135.884 22.8211V8.68359C135.884 8.68359 134.68 9.43161 133.065 9.70361C131.44 9.97902 129.821 9.96542 129.821 9.96542V11.084C129.821 11.084 130.797 11.0568 131.154 11.2982C131.685 11.5771 131.64 12.2027 131.64 12.8011V22.6749V22.8245C131.64 23.9805 130.481 23.9805 130.481 23.9805H129.821V24.9597H137.56V23.9805H137.046L137.043 23.9771Z" fill="#3F4C54"/>
<path d="M133.368 0C131.974 0 130.855 1.23423 130.855 2.75746C130.855 4.28069 131.974 5.52511 133.368 5.52511C134.762 5.52511 135.881 4.28069 135.881 2.75746C135.881 1.23423 134.755 0 133.368 0Z" fill="#3F4C54"/>
<path d="M91.8252 9.7002C91.8252 9.7002 92.8928 9.7784 93.175 10.5094C93.4504 11.2336 98.7239 24.7659 98.7239 24.7659L97.0341 28.8664C97.0341 28.8664 96.4595 30.4678 94.5181 30.7432C93.0288 30.954 91.9816 32.1237 92.3964 33.3613C92.7908 34.5479 94.0658 35.1191 95.2865 34.6499C96.3473 34.1773 96.7757 33.2729 97.7311 31.277C100.869 24.6979 105.31 11.1078 105.31 11.1078C105.31 11.1078 105.578 10.455 106.092 10.0844C106.605 9.7138 107.248 9.7002 107.248 9.7002V8.68018H101.597V9.7002H102.515C102.93 9.7002 103.841 10.2408 103.532 11.237C103.219 12.2298 101.138 18.8532 101.138 18.8532C101.138 18.8532 98.6049 12.0054 98.2377 10.982C97.9045 10.1898 98.5097 9.7002 98.9823 9.7002H99.7984V8.68018H91.832V9.7002H91.8252Z" fill="#3F4C54"/>
<path d="M93.7741 21.8623C93.7741 21.8623 93.4647 22.4233 92.9615 22.5355C92.1387 22.7225 92.2169 21.8623 92.2169 21.8623V13.6647C92.2169 11.5057 91.0336 8.13623 86.77 8.13623C84.4239 8.16003 81.731 8.92505 80.7246 10.2987C79.7216 11.6621 80.235 13.4539 81.4692 13.7803C82.7375 14.1238 83.5977 13.5083 83.9071 12.9133C84.2131 12.3285 84.1077 10.7917 84.1077 10.7917C84.1077 10.7917 84.7333 9.67306 86.1069 9.70366C87.4092 9.73426 87.858 10.7509 87.858 11.6111V14.3686C87.858 14.3686 80.3166 16.8302 79.7386 20.1283C79.181 23.3889 81.4998 24.6164 82.5641 24.9598C85.1855 25.9492 87.858 22.5049 87.858 22.5049C87.858 22.5049 88.0756 24.732 90.0714 25.0788C91.2682 25.2862 92.1115 24.868 92.7507 24.4736C93.9101 23.7766 94.5221 22.8551 94.5221 22.8551L93.7775 21.8623H93.7741ZM87.8546 20.8321C87.8546 20.8321 86.3755 23.4229 84.6721 21.7467C82.9619 20.0671 85.1549 16.582 87.8546 15.8272V20.8321Z" fill="#3F4C54"/>
<path d="M151.813 21.8623C151.813 21.8623 151.5 22.4233 151.003 22.5355C150.17 22.7225 150.252 21.8623 150.252 21.8623V13.6647C150.252 11.5057 149.079 8.13623 144.808 8.13623C142.466 8.16003 139.77 8.92505 138.766 10.2987C137.763 11.6621 138.277 13.4539 139.508 13.7803C140.776 14.1238 141.64 13.5083 141.949 12.9133C142.252 12.3285 142.143 10.7917 142.143 10.7917C142.143 10.7917 142.768 9.67306 144.145 9.70366C145.448 9.73426 145.893 10.7509 145.893 11.6111V14.3686C145.893 14.3686 138.355 16.8302 137.78 20.1283C137.209 23.3889 139.532 24.6164 140.599 24.9598C143.221 25.9492 145.89 22.5049 145.89 22.5049C145.89 22.5049 146.107 24.732 148.113 25.0788C149.3 25.2862 150.14 24.868 150.779 24.4736C151.938 23.7766 152.557 22.8551 152.557 22.8551L151.809 21.8623H151.813ZM145.893 20.8321C145.893 20.8321 144.417 23.4229 142.704 21.7467C141 20.0671 143.19 16.582 145.893 15.8272V20.8321Z" fill="#3F4C54"/>
<path d="M78.4873 23.4229C78.0351 22.9673 69.9395 11.8559 69.9395 11.8559C69.9395 11.8559 73.1424 8.1464 74.4922 6.57557C75.8454 5.01833 77.6713 4.83133 77.6713 4.83133V3.77051H69.9395V4.83133H71.1295C72.1971 4.83133 72.6664 5.93295 71.9421 6.64697C71.0003 7.58879 65.2678 14.7901 65.2678 14.7901V7.27938C65.2678 6.06215 65.6826 4.83133 66.9882 4.83133H68.1103V3.77051H57.7095V4.83133H58.8315C60.1371 4.83133 60.5519 6.07916 60.5519 7.27938C60.5519 8.4796 60.5621 21.5665 60.5621 22.2873C60.5621 23.0081 59.8685 23.9771 58.9335 23.9771H57.7061V24.9563H68.1069V23.9771H66.8794C65.9444 23.9771 65.2508 23.0081 65.2508 22.2873V17.5102L66.8794 15.4633C66.8794 15.4633 71.5035 21.9575 72.1087 22.8211C72.7276 23.6711 71.5715 23.9771 71.2281 23.9771H69.9327V24.9563H79.9935V23.9771C79.9935 23.9771 78.9361 23.8751 78.4805 23.4229H78.4873Z" fill="#3F4C54"/>
<path d="M126.557 6.47356C126.557 6.05876 127.091 4.83133 128.512 4.83133H129.134V3.77051H118.842V4.83133H119.75C121.171 4.83133 121.705 6.06216 121.705 6.47356V13.6613H113.028V6.47356C113.028 5.46374 114.208 4.83133 114.987 4.83133H115.599V3.77051H105.307V4.83133H106.214C107.636 4.83133 108.169 5.99075 108.169 6.47356V22.2533C108.169 22.6817 107.636 23.8955 106.214 23.8955H105.307V24.9563H115.599V23.8955H114.987C114.208 23.8955 113.028 23.2631 113.028 22.2533V15.0655H121.705V22.2533C121.705 22.6681 121.171 23.8955 119.75 23.8955H118.842V24.9563H129.134V23.8955H128.512C127.091 23.8955 126.557 22.6647 126.557 22.2533V6.47356Z" fill="#3F4C54"/>
<path d="M2.24744 3.77051V18.0576C2.24744 18.9178 2.40725 19.693 2.72685 20.3765C3.04646 21.0599 3.46127 21.6413 3.97468 22.1173C4.48469 22.5933 5.0627 22.9571 5.70871 23.2121C6.35133 23.4671 7.00414 23.5929 7.66035 23.5929C8.31657 23.5929 9.04078 23.4773 9.73439 23.2427C10.428 23.0081 11.0502 22.6647 11.6044 22.2091C12.1552 21.7535 12.6075 21.1823 12.9577 20.4989C13.3079 19.8154 13.4813 19.0232 13.4813 18.1188V3.77051H15.7321V17.9658C15.7321 18.7852 15.6233 19.5434 15.4057 20.237C15.1881 20.9307 14.8855 21.5631 14.5013 22.1309C14.1171 22.6987 13.6649 23.1985 13.1481 23.6269C12.6313 24.0587 12.0736 24.4191 11.4752 24.7149C10.8768 25.0073 10.258 25.2284 9.61199 25.3746C8.96938 25.5208 8.32677 25.5956 7.69095 25.5956C7.05514 25.5956 6.47033 25.5208 5.85152 25.3746C5.2327 25.2284 4.64109 25.0107 4.07328 24.7217C3.50547 24.4327 2.97506 24.0723 2.47865 23.6439C1.98224 23.2121 1.55043 22.7157 1.18662 22.1479C0.822816 21.5801 0.533811 20.9409 0.319606 20.2336C0.105402 19.523 0 18.7478 0 17.908V3.77051H2.25084H2.24744Z" fill="#C33B32"/>
<path d="M37.7954 14.3483C37.7954 15.9803 37.5846 17.4797 37.163 18.8466C36.7414 20.2134 36.126 21.3932 35.3168 22.3792C34.5075 23.3686 33.5113 24.1337 32.3315 24.6811C31.1517 25.2285 29.8018 25.5005 28.282 25.5005C26.7622 25.5005 25.4124 25.2285 24.2325 24.6811C23.0527 24.1337 22.0599 23.3652 21.2541 22.3792C20.4483 21.3898 19.8362 20.2134 19.4146 18.8466C18.993 17.4797 18.7822 15.9803 18.7822 14.3483C18.7822 12.7162 18.993 11.2338 19.4146 9.87377C19.8362 8.51034 20.4483 7.33732 21.2541 6.3547C22.0599 5.37208 23.0527 4.60706 24.2325 4.05965C25.4124 3.51224 26.7622 3.24023 28.282 3.24023C29.8018 3.24023 31.1517 3.51224 32.3315 4.05965C33.5113 4.60706 34.5075 5.37208 35.3168 6.3547C36.126 7.33732 36.7414 8.51034 37.163 9.87377C37.5846 11.2372 37.7954 12.7298 37.7954 14.3483ZM35.5276 14.3483C35.5276 12.9202 35.3406 11.6418 34.9665 10.5096C34.5925 9.38076 34.0757 8.42194 33.4229 7.63652C32.7701 6.85111 32.0017 6.2527 31.1211 5.84469C30.2405 5.43328 29.2918 5.22928 28.2786 5.22928C27.2654 5.22928 26.3032 5.43328 25.4226 5.84469C24.5419 6.2561 23.7769 6.85451 23.1275 7.63652C22.4781 8.42194 21.9681 9.38076 21.6009 10.5096C21.2303 11.6384 21.0467 12.9202 21.0467 14.3483C21.0467 15.7763 21.2303 17.0581 21.6009 18.1937C21.9715 19.3294 22.4815 20.2882 23.1275 21.0736C23.7769 21.859 24.5419 22.4608 25.4226 22.8756C26.3032 23.2904 27.2552 23.4979 28.2786 23.4979C29.302 23.4979 30.2405 23.2904 31.1211 22.8756C32.0017 22.4608 32.7701 21.859 33.4229 21.0736C34.0757 20.2882 34.5891 19.3294 34.9665 18.1937C35.3406 17.0581 35.5276 15.7763 35.5276 14.3483Z" fill="#C33B32"/>
<path d="M56.0402 17.3436C55.8872 16.8064 55.6424 16.3065 55.3024 15.8373C54.9624 15.3715 54.5136 14.9567 53.956 14.5895C53.3984 14.2257 52.715 13.9265 51.9058 13.6919C51.7902 13.6579 51.6949 13.6341 51.6133 13.6137C52.6198 13.0663 53.3984 12.3795 53.9424 11.5465C54.5136 10.676 54.8026 9.73421 54.8026 8.72099C54.8026 8.04098 54.6598 7.40517 54.3776 6.80675C54.0954 6.20834 53.6874 5.68473 53.1604 5.23252C52.6334 4.78031 52.001 4.4233 51.2597 4.1615C50.5185 3.89969 49.6889 3.76709 48.7675 3.76709H40.9609V24.9699H50.1717C50.9707 24.9699 51.7391 24.8135 52.4736 24.4973C53.208 24.1845 53.8574 23.7561 54.4184 23.2121C54.9794 22.6715 55.4282 22.0391 55.7648 21.3183C56.098 20.5974 56.268 19.829 56.268 19.0096C56.268 18.4316 56.1932 17.874 56.0402 17.3368V17.3436ZM43.2152 5.82073H48.6349C49.3149 5.82073 49.8997 5.90573 50.3995 6.07234C50.8959 6.23894 51.3039 6.46675 51.6235 6.75575C51.9432 7.04476 52.1778 7.38476 52.3308 7.77237C52.4838 8.16338 52.5586 8.58499 52.5586 9.0406C52.5586 9.53701 52.4532 10.0062 52.239 10.4448C52.0248 10.8868 51.729 11.2744 51.3481 11.6077C50.9673 11.9409 50.5151 12.2061 49.9881 12.3965C49.4611 12.5903 48.8797 12.6855 48.2405 12.6855H43.2152V5.81393V5.82073ZM53.5854 20.6858C53.2964 21.1925 52.9258 21.6107 52.4668 21.9405C52.0112 22.2703 51.4977 22.5151 50.9231 22.6783C50.3519 22.8415 49.7807 22.9231 49.2129 22.9231H43.2084V14.7017H48.3901C49.2707 14.7017 50.0595 14.8139 50.7531 15.0349C51.4467 15.2593 52.035 15.5585 52.5178 15.9393C52.9972 16.3202 53.3678 16.7656 53.6262 17.2756C53.8846 17.789 54.0138 18.3262 54.0138 18.894C54.0138 19.5842 53.871 20.1826 53.582 20.6858H53.5854Z" fill="#C33B32"/>
</svg>
