<svg width="401" height="301" viewBox="0 0 401 301" fill="none" xmlns="http://www.w3.org/2000/svg">
<g clip-path="url(#clip0_17851_97453)">
<mask id="mask0_17851_97453" style="mask-type:alpha" maskUnits="userSpaceOnUse" x="-1" y="0" width="402" height="301">
<path d="M400 0.5H0V300.5H400V0.5Z" fill="#FF0202" stroke="white"/>
</mask>
<g mask="url(#mask0_17851_97453)">
<path d="M211.173 329.065C259.38 329.065 298.46 289.977 298.46 241.758C298.46 193.541 259.38 154.452 211.173 154.452C162.967 154.452 123.887 193.541 123.887 241.758C123.887 289.977 162.967 329.065 211.173 329.065Z" stroke="white" stroke-miterlimit="10"/>
<path d="M296.871 154.457H211.21V242.028H296.871C321.048 242.028 340.647 222.424 340.647 198.242C340.647 174.061 321.048 154.457 296.871 154.457Z" stroke="white" stroke-miterlimit="10"/>
<path d="M211.21 242.028V329.6H307.295C331.471 329.6 351.071 309.996 351.071 285.815C351.071 261.632 331.471 242.028 307.295 242.028H211.21Z" stroke="white" stroke-miterlimit="10"/>
<path d="M298.352 154.457H429.233" stroke="white" stroke-miterlimit="10"/>
<path d="M298.225 -233V642.068" stroke="white" stroke-miterlimit="10"/>
<path d="M211.155 -233V642.068" stroke="white" stroke-miterlimit="10"/>
<path d="M298.214 3.7627L211.145 78.7137V78.8012L298.214 153.754" stroke="white" stroke-miterlimit="10"/>
<path d="M211.145 -233V190.222C211.145 250.477 162.311 299.321 102.072 299.321C41.8322 299.321 -7 250.475 -7 190.222V-233" stroke="white" stroke-miterlimit="10"/>
</g>
</g>
<defs>
<clipPath id="clip0_17851_97453">
<rect width="401" height="301" fill="white"/>
</clipPath>
</defs>
</svg>
