<svg width="170" height="90" viewBox="0 0 170 90" fill="none" xmlns="http://www.w3.org/2000/svg">
<path d="M7 29H39.3256V61.3546H7V29Z" fill="url(#paint0_linear_17102_99056)"/>
<path d="M38.3304 45.3231C38.3304 52.0918 38.6108 59.0056 38.6108 59.0056C38.6108 59.7889 38.1176 60.282 37.4794 60.282H9.49554C8.84768 60.282 8.42222 59.7115 8.35453 59.0056C8.35453 59.0056 7.57129 53.0878 7.57129 44.1047C7.57129 35.054 8.42222 30.8573 8.42222 30.8573C8.49957 30.1418 8.92504 29.5713 9.56323 29.5713H37.5471C38.1853 29.5713 38.6881 30.1418 38.6881 30.8573C38.6108 30.8573 38.3304 38.6221 38.3304 45.3231Z" fill="url(#paint1_linear_17102_99056)"/>
<path d="M32.0636 37.6932C30.0717 38.8342 29.4335 38.9792 27.2965 40.2556L27.3642 40.0429C28.5052 38.8342 28.9983 38.2637 29.7139 37.1903C27.7219 37.3354 24.8017 37.5481 22.7324 37.9833L22.8775 37.7609C24.8017 36.8422 28.2925 35.914 30.0717 35.7012C29.6462 35.0534 26.0781 33.1291 25.2272 32.781L25.2949 32.5586C28.0024 32.8487 31.5608 34.1347 33.0596 35.0534C33.6978 34.8406 34.4133 34.8406 35.622 34.7053C35.622 34.7053 35.4093 35.4111 34.1329 36.3394C34.481 37.1903 33.6978 42.1122 32.9919 43.3982C32.9919 41.3966 32.8468 38.8342 32.0636 37.6932Z" fill="url(#paint2_linear_17102_99056)"/>
<path d="M14.3294 54.6548C14.2617 55.3703 14.4745 55.8635 14.6195 56.5114L14.5518 56.7241C13.6912 55.8635 13.1207 55.0802 12.6276 54.0166C11.6316 53.5815 10.9837 53.156 10.1328 52.6628L10.2005 52.4501C10.771 52.2277 11.3415 52.2277 11.9797 52.015C11.767 50.7386 11.8443 49.5976 11.9797 47.9537V47.8184C12.3375 49.2398 12.5502 50.7386 13.1981 51.8022C13.9813 51.6669 14.7646 51.3091 15.6832 51.164L15.6155 51.3768C15.1127 52.0923 14.8322 52.6628 14.5518 53.4461C15.4028 54.297 16.4664 54.5871 17.5397 55.0126L17.4624 55.2253C16.2537 55.1576 15.4028 55.0126 14.3294 54.6548Z" fill="url(#paint3_linear_17102_99056)"/>
<path d="M20.4602 38.9805C20.4602 38.9805 20.0347 39.7637 19.6769 40.7597H19.5996C22.0943 41.1175 24.4441 42.1134 25.0146 42.4712L24.9469 42.6839C22.3844 42.2585 21.0307 42.2585 20.0347 42.3938C19.1064 42.4712 18.8937 42.6162 18.8937 42.6162C18.3232 43.825 18.0331 45.8169 17.8977 46.5324L17.8204 46.7452C17.3272 45.6042 16.6793 43.3221 16.6793 43.3221C15.403 44.0377 12.415 46.8129 12.415 46.8129C14.0492 43.5349 15.7607 42.0457 15.7607 42.0457C15.1902 41.4752 13.6914 41.1851 12.5504 41.1175L12.6278 40.9047C13.3337 40.692 14.7648 40.6146 15.6834 40.5469C16.8244 40.5469 17.4626 40.5469 17.4626 40.5469C18.3909 39.7637 19.8897 39.0482 20.4602 38.9805Z" fill="url(#paint4_linear_17102_99056)"/>
<path d="M23.7287 54.5094C24.5893 54.0839 25.5176 53.3007 26.3008 52.7979L26.1558 53.0203C25.3725 53.8035 24.7343 54.4417 23.806 55.1572C23.8737 55.5053 24.0865 55.6504 24.1638 55.8631L24.0865 56.0759C23.7287 56.1532 23.2355 56.1532 22.7327 56.1532C21.7367 56.7914 20.383 57.2169 19.387 57.4296L19.4644 57.2169C19.9575 56.8688 20.5957 56.511 21.0985 56.0759C20.4604 55.9405 19.8898 55.7277 19.3193 55.4377L19.387 55.2249C20.1703 55.2249 21.1662 55.2926 22.0268 55.0799C22.5973 54.4417 23.0905 53.8712 23.5933 53.1556C23.5933 53.6584 23.661 54.0162 23.7287 54.5094Z" fill="url(#paint5_linear_17102_99056)"/>
<path d="M32.2088 37.4804C30.2169 38.6214 29.569 38.7665 27.432 40.0429C28.7181 38.6891 29.1435 38.1186 29.9268 36.9099C27.9348 36.9776 25.0146 37.2677 22.9453 37.6932C24.7342 36.6972 28.3603 35.6239 30.2169 35.4111C29.7817 34.8406 26.2233 32.9937 25.295 32.5586C28.0799 32.781 31.5609 33.8447 33.2048 34.8406C33.843 34.6279 34.5585 34.6279 35.7672 34.4828C35.4771 35.0534 35.4771 35.4111 34.2684 36.1944C34.6262 37.055 33.843 41.9671 33.1274 43.2532C33.1274 41.1839 32.9147 38.6214 32.2088 37.4804Z" fill="white"/>
<path d="M14.5523 54.4413C14.4072 55.2245 14.4749 55.795 14.6877 56.5106C13.8367 55.65 13.2662 54.8667 12.7634 53.8031C11.8448 53.368 11.1292 52.9425 10.2783 52.4493C10.8488 52.1593 11.4193 52.0142 12.1252 51.8015C11.9125 50.5251 11.9125 49.3841 12.1252 47.7402C12.4153 49.239 12.6957 50.38 13.4113 51.5887C14.1945 51.376 14.9004 51.3083 15.8287 51.1633C15.3355 51.8788 15.0454 52.4493 14.765 53.2326C15.616 54.0835 16.4669 54.5863 17.6079 55.0118C16.3992 54.9441 15.4709 54.7991 14.5523 54.4413Z" fill="white"/>
<path d="M20.5952 38.7666C20.2471 39.2598 19.812 40.1203 19.7443 40.4685C22.6645 40.9036 25.0819 42.3927 25.0819 42.3927C22.5195 41.9672 21.1657 41.9672 20.1698 42.1123C19.2512 42.18 19.0288 42.325 19.0288 42.325C18.3229 43.8238 17.8974 46.4636 17.8974 46.4636C17.3946 45.3226 16.7564 43.0406 16.7564 43.0406C15.4703 43.7561 12.4824 46.5313 12.4824 46.5313C14.1166 43.2533 15.8281 41.7545 15.8281 41.7545C15.2576 41.184 13.7685 40.9036 12.6275 40.8262C13.198 40.6135 14.6871 40.3331 15.8281 40.2557C16.9691 40.2557 17.6073 40.2557 17.6073 40.2557C18.5356 39.5498 20.0344 38.8343 20.5952 38.7666Z" fill="white"/>
<path d="M23.7284 54.229C24.6567 53.8035 25.3722 53.3684 26.2231 52.7979C25.5173 53.5908 24.8017 54.229 23.8734 54.9445C23.9508 55.37 24.0185 55.5827 24.0862 55.8631C23.7284 55.9405 23.2352 55.9405 22.7324 55.9405C21.7364 56.5787 20.3827 57.0041 19.3867 57.2169C20.0346 56.7914 20.5277 56.4336 21.1659 55.8631C20.5277 55.7277 19.9572 55.5053 19.3867 55.2249C20.3827 55.2249 21.1659 55.1572 22.1619 54.8672C22.7324 54.229 23.2352 53.6584 23.7284 52.9429C23.7284 53.4457 23.7284 53.8035 23.7284 54.229Z" fill="white"/>
<path fill-rule="evenodd" clip-rule="evenodd" d="M47.3711 39.5512H53.1439C55.1358 39.6189 57.2728 40.3344 57.2728 42.1813C57.2728 43.3223 56.2768 44.3183 54.8457 44.6761C56.77 45.2466 57.8433 46.3199 57.8433 47.7413C57.8433 50.0234 55.1358 50.8066 52.5734 50.8066H47.4484V50.6616C47.5838 49.2401 47.5838 45.8944 47.5838 44.8888C47.5838 43.8251 47.5161 40.8276 47.4484 39.6865L47.3711 39.5512ZM50.4267 40.9049C50.4267 42.4037 50.359 44.1152 50.359 44.8985C50.359 45.5367 50.359 47.8187 50.4267 49.4625C50.7845 49.4625 51.355 49.4625 51.7128 49.4625C53.8497 49.4625 54.9134 48.8147 54.9134 47.606C54.9134 47.2482 54.7684 46.9001 54.5556 46.61C54.0625 45.9718 52.9891 45.614 51.7804 45.614H51.1422L51.7804 44.0475H51.8481C52.9215 44.1152 53.7047 43.8348 54.1302 43.332C54.3429 43.1193 54.4202 42.8292 54.4202 42.4811C54.4202 41.2627 53.637 40.8372 51.4227 40.8372C51.0649 40.8372 50.6394 40.8372 50.4267 40.9049ZM69.8626 39.6285H70.085V39.6962C70.0077 40.8372 69.94 43.8348 69.94 44.8985C69.94 45.8944 69.94 49.2498 70.085 50.6712V50.8163H67.9481V50.7389C67.7353 50.3135 63.1713 43.7575 63.1713 43.6898C62.7458 43.0516 62.6008 42.8292 62.5331 42.4811C62.5331 45.1886 62.5331 47.9637 62.6781 50.6712V50.8163H60.0383V50.6712C60.1833 49.2498 60.1833 45.8944 60.1833 44.8985C60.1833 43.8348 60.1157 40.8372 60.0383 39.6962V39.5512H62.9585C63.8868 40.6922 66.5169 44.7534 66.5169 44.8308C67.3002 45.9718 67.4452 46.1845 67.5903 46.61C67.4452 45.2562 67.4452 43.8348 67.3775 42.4037L67.3002 39.5512H69.8626V39.6285ZM72.9956 39.7059V39.5608H77.9174C80.2672 39.6285 83.0423 40.199 83.0423 42.8388C83.0423 45.1209 81.0504 46.1845 76.9118 46.1845C76.9118 46.1845 76.0609 46.1845 75.9158 46.1845C75.9158 47.6833 75.9932 49.6076 76.0609 50.6809V50.8163H72.9279V50.6809C73.073 49.2498 73.073 45.9041 73.073 44.9081C73.073 43.8348 72.9956 40.8469 72.9279 39.7059H72.9956ZM75.8481 40.9823C75.8481 41.7752 75.8481 42.6261 75.8481 43.3417C75.8481 43.9122 75.8481 44.4053 75.8481 44.7631C75.9835 44.7631 76.7668 44.7631 76.7668 44.7631C78.2655 44.7631 80.1124 44.4053 80.1124 42.7712C80.1124 42.4134 79.9771 42.0556 79.7643 41.7752C79.2615 41.2015 78.2623 40.9146 76.7668 40.9146C76.4186 40.9146 76.0609 40.9823 75.8481 40.9823ZM88.9505 39.5608H93.8626C96.2124 39.6285 99.0552 40.199 99.0552 42.8388C99.0552 45.1209 97.0633 46.1845 92.9344 46.1845C92.9344 46.1845 92.0834 46.1845 91.9384 46.1845C91.9384 47.6833 92.0061 49.6076 92.0834 50.6809V50.8163H88.9505V50.6809C89.0859 49.2498 89.0859 45.9041 89.0859 44.9081C89.0859 43.8348 89.0182 40.8469 88.9505 39.7059V39.5608ZM91.861 40.9823C91.861 41.7655 91.861 42.6261 91.861 43.332C91.861 43.9025 91.861 44.4053 91.861 44.7631C92.0061 44.7631 92.7893 44.7631 92.7893 44.7631C94.2881 44.7631 96.135 44.4053 96.135 42.7615C96.135 42.4134 95.9996 42.0556 95.7772 41.7655C95.2809 41.1982 94.2849 40.9146 92.7893 40.9146C92.4315 40.9146 92.0834 40.9823 91.861 40.9823ZM105.176 39.5608L110.166 50.8163H107.1V50.7486C106.965 50.3231 106.607 49.3948 106.104 48.1861C106.037 48.1861 103.9 48.1861 103.9 48.1861C103.9 48.1861 101.83 48.1861 101.695 48.1861C101.337 49.1048 100.979 49.9654 100.767 50.7486V50.8163H98.127L98.2043 50.6712C98.7748 49.3948 102.546 41.195 103.184 39.5608H105.176ZM102.333 46.6874C102.546 46.6874 105.321 46.6874 105.321 46.6874C105.321 46.6874 105.466 46.6874 105.602 46.6874C104.896 44.9081 104.18 43.477 103.967 42.9065C103.474 43.9799 102.904 45.2562 102.333 46.6874ZM111.519 39.5608H116.432C118.849 39.6285 121.624 40.2667 121.624 42.8388C121.624 44.2603 120.773 45.2562 119.062 45.7591L119.139 45.8268C120.058 47.1805 122.272 50.3908 122.407 50.6035L122.485 50.7486H119.139V50.6712C118.423 49.3175 116.789 46.5423 115.648 44.9081L115.503 44.6857L115.716 44.7631C115.716 44.7631 116.006 44.7631 116.354 44.7631C117.495 44.6857 118.704 44.0475 118.704 42.7615C118.704 42.4134 118.569 42.0556 118.356 41.7655C117.853 41.195 116.789 40.9146 115.358 40.9146C115.078 40.9146 114.72 40.9823 114.507 40.9823C114.44 42.4134 114.44 44.1152 114.44 44.9081C114.44 45.9041 114.507 49.2498 114.652 50.6712V50.8163H111.519V50.6712C111.655 49.2498 111.655 45.9041 111.655 44.9081C111.655 43.8348 111.587 40.8372 111.519 39.7059V39.5608ZM127.039 39.5608V39.6285C126.971 40.7695 126.894 43.7575 126.894 44.8308C126.894 45.8268 126.894 49.1724 127.039 50.6035V50.7486H123.906V50.6035C124.051 49.1724 124.051 45.8268 124.051 44.8308C124.051 43.7575 123.974 40.7695 123.906 39.6285V39.5608H127.039ZM129.814 39.5608H135.587C137.579 39.6285 139.716 40.3441 139.716 42.191C139.716 43.332 138.72 44.328 137.289 44.6857C139.213 45.2562 140.287 46.3296 140.287 47.751C140.287 50.033 137.579 50.8163 135.017 50.8163H129.814V50.6712C129.959 49.2498 129.959 45.8944 129.959 44.8985C129.959 43.8348 129.882 40.8372 129.814 39.6962V39.5608ZM132.735 40.9146C132.667 42.4134 132.667 44.1249 132.667 44.9081C132.667 45.5463 132.667 47.8284 132.735 49.4722C133.092 49.4722 133.663 49.4722 134.021 49.4722C136.225 49.4722 137.289 48.8243 137.289 47.6156C137.289 47.2579 137.221 46.9001 136.931 46.6197C136.37 45.9815 135.365 45.6237 134.156 45.6237H133.585L134.156 44.0572H134.233C135.297 44.1249 136.08 43.8348 136.506 43.3417C136.718 43.1289 136.796 42.8388 136.796 42.4811C136.796 41.2724 136.013 40.8469 133.798 40.8469C133.45 40.8469 133.015 40.8469 132.735 40.9146ZM152.886 50.826H149.821V50.7486C149.685 50.3231 149.328 49.3948 148.825 48.1861C148.825 48.1861 144.483 48.1861 144.415 48.1861C144.054 49.1144 143.768 49.9686 143.555 50.7486V50.826H140.847L140.925 50.6809C141.282 49.9654 145.199 41.3497 145.837 39.6382V39.5608H147.897L152.886 50.826ZM145.054 46.6197C145.276 46.6197 148.051 46.6197 148.051 46.6197C148.051 46.6197 148.122 46.6197 148.264 46.6197C147.548 44.8405 146.91 43.3417 146.62 42.8485C146.127 43.9895 145.556 45.2659 145.054 46.6197ZM158.591 39C159.655 39 160.718 39.2127 161.366 39.3578L162.004 39.5028V41.9879L161.366 41.7075C160.651 41.4271 159.442 40.9243 158.156 40.9243C156.454 40.9243 156.454 41.6398 156.454 41.9202C156.454 42.7808 157.808 43.274 159.152 43.8445C161.009 44.56 163 45.3433 163 47.4126C163 49.6172 161.009 50.9033 157.731 50.9033C156.522 50.9033 155.236 50.6132 154.598 50.4682H154.385L154.027 50.4005V47.9831L154.53 48.2635C155.884 48.9017 157.025 49.1918 158.088 49.2595C159.152 49.3368 159.8 49.1144 160.158 48.7663C160.293 48.5439 160.37 48.3312 160.37 48.0508C160.37 47.1225 158.939 46.552 157.585 45.9815C155.884 45.2659 153.892 44.4827 153.892 42.4907C153.892 40.4988 155.739 39.145 158.591 39Z" fill="black"/>
<defs>
<linearGradient id="paint0_linear_17102_99056" x1="23.1483" y1="28.2071" x2="23.1483" y2="62.3215" gradientUnits="userSpaceOnUse">
<stop stop-color="#008053"/>
<stop offset="0.6" stop-color="#7FCBAE"/>
<stop offset="1" stop-color="#00A76D"/>
</linearGradient>
<linearGradient id="paint1_linear_17102_99056" x1="23.1007" y1="20.975" x2="23.1007" y2="59.3151" gradientUnits="userSpaceOnUse">
<stop stop-color="#00A76D"/>
<stop offset="0.3" stop-color="#7FCBAE"/>
<stop offset="0.6" stop-color="#00A76D"/>
<stop offset="0.8" stop-color="#008053"/>
<stop offset="0.9" stop-color="#009264"/>
<stop offset="1" stop-color="#00AD7D"/>
</linearGradient>
<linearGradient id="paint2_linear_17102_99056" x1="29.2304" y1="57.1968" x2="29.2304" y2="32.3845" gradientUnits="userSpaceOnUse">
<stop stop-color="#00B387"/>
<stop offset="1" stop-color="#00A76D"/>
</linearGradient>
<linearGradient id="paint3_linear_17102_99056" x1="13.8556" y1="57.1979" x2="13.8556" y2="32.376" gradientUnits="userSpaceOnUse">
<stop stop-color="#00B387"/>
<stop offset="1" stop-color="#00A76D"/>
</linearGradient>
<linearGradient id="paint4_linear_17102_99056" x1="18.6423" y1="57.1884" x2="18.6423" y2="32.3858" gradientUnits="userSpaceOnUse">
<stop stop-color="#00B387"/>
<stop offset="1" stop-color="#00A76D"/>
</linearGradient>
<linearGradient id="paint5_linear_17102_99056" x1="22.7811" y1="57.1975" x2="22.7811" y2="32.3853" gradientUnits="userSpaceOnUse">
<stop stop-color="#00B387"/>
<stop offset="1" stop-color="#00A76D"/>
</linearGradient>
</defs>
</svg>
