<?xml version="1.0" encoding="UTF-8"?>
<svg id="Layer_1" data-name="Layer 1" xmlns="http://www.w3.org/2000/svg" viewBox="0 0 170 90">
  <defs>
    <style>
      .cls-1 {
        fill: #0472ff;
      }

      .cls-2 {
        fill: #24324a;
      }
    </style>
  </defs>
  <path class="cls-2" d="M18.02,46.35v6.99h10.36l.46,4.83h-15.84v-27.2h15.84l-.41,4.83h-10.38v5.81h8.67v4.75h-8.7Z"/>
  <path class="cls-2" d="M66.34,30.36v10.33c-1.5-.9-3.23-1.36-4.98-1.34-5.28-.06-9.61,4.18-9.66,9.46,0,.07,0,.13,0,.2-.1,5.24,4.07,9.56,9.31,9.66.12,0,.23,0,.35,0,1.86.06,3.65-.65,4.98-1.96v1.44h4.72v-28.16l-4.72.36ZM64.91,52.63c-1.99,1.9-5.11,1.9-7.1,0-.93-.97-1.43-2.28-1.39-3.62-.04-1.35.47-2.65,1.39-3.62,1.99-1.9,5.11-1.9,7.1,0,.95.96,1.47,2.27,1.43,3.62.05,1.35-.47,2.67-1.43,3.62Z"/>
  <path class="cls-2" d="M89.66,55.9c-3.75,3.8-9.87,3.84-13.66.09-1.86-1.84-2.9-4.35-2.87-6.97.03-5.36,4.39-9.68,9.75-9.66,2.54.01,4.98,1.02,6.79,2.81,1.84,1.79,2.87,4.27,2.82,6.84.05,2.59-.97,5.08-2.82,6.88ZM79.23,52.63c1.99,1.9,5.11,1.9,7.1,0,.95-.96,1.47-2.26,1.44-3.62.04-1.35-.48-2.66-1.43-3.62-1.99-1.9-5.11-1.9-7.1,0-.94.97-1.45,2.27-1.43,3.62-.03,1.35.48,2.65,1.41,3.62Z"/>
  <path class="cls-2" d="M111.73,51.14l3.11-11.27h5.02l-5.81,18.3h-4.5l-3.38-11.09-3.37,11.09h-4.5l-5.81-18.3h4.98l3.11,11.24,3.32-11.24h4.47l3.36,11.27Z"/>
  <path class="cls-1" d="M155.37,50.15c-.35-.68-.88-1.25-1.52-1.66-.6-.41-1.25-.74-1.92-1-.69-.25-1.4-.45-2.12-.61-2.21-.55-3.32-1.22-3.32-2.01,0-.44.23-.85.61-1.08.45-.3.98-.44,1.52-.42,1.25-.07,2.41.65,2.92,1.79l4.02-2.2c-.67-1.21-1.67-2.2-2.89-2.87-1.25-.68-2.64-1.03-4.06-1.01-1.79-.06-3.55.5-4.98,1.58-1.3,1.02-2.02,2.61-1.94,4.25-.02.82.17,1.63.53,2.36.36.69.9,1.26,1.56,1.66.6.39,1.23.71,1.9.97.59.22,1.29.44,2.12.66,2.21.55,3.32,1.22,3.32,2.01,0,1.05-.83,1.58-2.53,1.58-1.6.15-3.09-.83-3.58-2.36l-4.15,2.26c1.38,2.91,3.94,4.37,7.7,4.37,1.86.06,3.69-.46,5.23-1.5,1.4-.99,2.2-2.64,2.12-4.35.02-.85-.17-1.68-.55-2.44Z"/>
  <path class="cls-1" d="M134.86,48.88c.05,1.33-.41,2.62-1.29,3.62-1.23,1.68-3.59,2.05-5.27.82-.27-.2-.51-.43-.71-.68-.85-1.01-1.29-2.3-1.25-3.62v-9.12h-4.4v9.12h0v.13h0c-.05,2.48.84,4.89,2.49,6.74,3.01,3.41,8.21,3.73,11.62.72.26-.23.5-.47.72-.72,1.67-1.89,2.56-4.35,2.49-6.88v-9.12h-4.45l.05,9Z"/>
  <path class="cls-2" d="M42.41,39.36c1.87-.08,3.69.66,4.98,2.02,1.37,1.52,2.08,3.52,1.97,5.56v11.22h-4.71v-10.65c.06-1.02-.29-2.02-.97-2.78-.71-.68-1.67-1.04-2.65-.99-1.12-.08-2.23.34-3.01,1.15-.78.95-1.17,2.16-1.09,3.38v9.88h-4.72v-18.18l4.72-.12v1.38c.94-.91,2.45-1.88,5.48-1.88Z"/>
</svg>