<svg width="170" height="90" viewBox="0 0 170 90" fill="none" xmlns="http://www.w3.org/2000/svg">
<path fill-rule="evenodd" clip-rule="evenodd" d="M141.214 42.0793H136.047V21.7122H140.911V23.9924C141.519 22.6242 143.039 21.4079 145.015 21.2562C148.359 21.1044 150.639 23.0803 150.639 27.3363V42.0793H145.319V26.7286C145.319 24.9045 145.319 23.3846 144.103 23.0803C143.647 22.9286 142.887 23.0803 142.278 23.5354C141.519 24.2958 141.214 25.2079 141.214 26.7286C141.214 27.032 141.214 42.0793 141.214 42.0793Z" fill="#64A8F0"/>
<path fill-rule="evenodd" clip-rule="evenodd" d="M53.3596 23.08C52.1441 22.0162 50.6234 21.2559 48.7993 21.2559C46.9761 21.2559 45.6079 22.0162 44.2399 23.08C42.1114 24.9042 40.7441 28.2481 40.7441 31.8955C40.7441 35.6954 42.1114 38.8867 44.2399 40.7118C45.6079 41.7756 46.9761 42.535 48.7993 42.535C50.6234 42.535 52.1441 41.7756 53.3596 40.7118C55.6398 38.8867 56.8553 35.6954 56.8553 31.8955C56.8553 28.2481 55.6398 24.9042 53.3596 23.08ZM51.3837 31.8955C51.3837 35.6954 51.3837 38.7359 50.7751 40.2558C50.32 41.0152 49.8631 41.4713 48.7993 41.4713C47.8881 41.4713 47.2804 41.0152 46.9761 40.2558C46.2157 38.7359 46.2157 35.6954 46.2157 31.8955C46.2157 28.2481 46.2157 25.0558 46.9761 23.5351C47.2804 22.7757 47.8881 22.3196 48.7993 22.3196C49.8631 22.3196 50.32 22.7757 50.7751 23.5351C51.5364 25.0558 51.3837 28.2481 51.3837 31.8955Z" fill="#64A8F0"/>
<path fill-rule="evenodd" clip-rule="evenodd" d="M106.407 49.832V55.3035H105.344C104.736 53.0243 103.824 51.0484 101.392 50.8959C99.8722 50.7441 98.5038 51.6561 98.3511 53.0243C98.1994 54.3915 98.6555 55.6078 101.392 57.1277C104.888 59.1036 107.624 60.0156 107.624 64.1199C107.624 68.5277 103.824 70.6561 100.632 70.6561C99.2634 70.6561 94.5512 70.6561 94.5512 70.6561V63.0553H95.6161C96.3766 67.0078 97.5924 69.4397 100.48 69.5914C102.304 69.5914 103.671 68.5277 103.671 66.5518C103.671 64.576 102.455 63.3596 99.5678 61.6871C96.3766 59.7113 94.3994 58.4958 94.3994 55.7596C94.3994 52.1114 96.9845 49.832 101.088 49.832C102.455 49.832 106.407 49.832 106.407 49.832Z" fill="#64A8F0"/>
<path fill-rule="evenodd" clip-rule="evenodd" d="M113.094 42.0795V27.3365C113.094 23.0805 110.814 21.1047 107.47 21.2564C105.19 21.4082 103.823 22.9289 103.214 24.1444C102.454 22.0168 100.782 21.1047 98.3499 21.2564C96.3754 21.4082 94.8544 22.6245 94.2465 23.9926V21.7125H89.5352V42.0795H94.7026C94.7026 42.0795 94.7026 27.1849 94.7026 26.7288C94.7026 25.2081 94.8544 24.296 95.7666 23.5357C96.3754 23.0805 96.9833 22.9289 97.4385 23.0805C98.6543 23.3848 98.6543 24.9047 98.6543 26.7288V42.0795H103.823V26.5771C103.823 25.2081 104.126 24.296 104.887 23.5357C105.495 23.0805 106.102 22.9289 106.559 23.0805C107.774 23.3848 107.926 24.9047 107.926 26.7288V42.0795H113.094Z" fill="#64A8F0"/>
<path fill-rule="evenodd" clip-rule="evenodd" d="M60.3525 17.457H65.6723V42.0801H60.3525V17.457Z" fill="#64A8F0"/>
<path fill-rule="evenodd" clip-rule="evenodd" d="M84.5199 42.0801V17.457H79.1992V23.2328C78.7441 22.1691 77.6793 21.4087 76.1595 21.4087C72.3596 21.4087 69.3191 25.3604 69.1673 31.4405C69.0157 35.5449 70.3837 42.3844 75.7035 42.3844C77.8311 42.3844 79.0475 41.1689 79.5035 40.1043V42.0801H84.5199ZM78.2871 23.3854C79.3518 24.9053 79.3518 28.5526 79.3518 31.4405C79.3518 34.4801 79.5035 38.4327 78.2871 40.1043C77.8311 40.7129 77.3759 41.0164 76.6156 41.0164C75.5518 41.0164 74.9432 39.8009 74.6397 37.825C74.4872 36.0008 74.4872 33.7207 74.4872 31.2888C74.4872 27.1854 74.7915 22.625 76.7673 22.625C77.5277 22.625 77.8311 22.9294 78.2871 23.3854Z" fill="#64A8F0"/>
<path fill-rule="evenodd" clip-rule="evenodd" d="M128.903 22.3196C130.27 23.08 131.183 24.2955 131.183 27.0317V42.079H126.167V39.7997C125.559 41.4713 123.887 42.535 121.607 42.535C119.783 42.535 116.591 41.6238 116.591 36.9118C116.591 32.5032 119.479 31.5921 122.671 30.2239C125.559 29.0084 125.863 28.8549 125.863 27.6395C125.863 26.5765 125.863 25.6636 125.863 24.2955C125.863 22.9283 125.104 22.3196 123.583 22.3196C122.975 22.4714 121.911 22.7757 121.911 23.5351C121.758 24.4481 122.822 24.4481 122.975 25.8162C123.127 27.9438 121.455 28.7032 119.936 28.5515C118.871 28.5515 117.655 27.9438 117.503 26.2722C117.351 23.5351 120.391 21.2559 124.647 21.2559C126.623 21.2559 127.839 21.7119 128.903 22.3196ZM125.863 29.9196L124.191 30.9834C122.519 32.048 122.214 33.4153 122.063 34.936C121.911 36.1515 121.911 37.2161 122.063 39.0394C122.214 40.7118 123.279 41.0152 124.191 40.7118C125.256 40.2558 125.863 38.2799 125.863 36.1514C125.863 36.1514 125.863 30.68 125.863 29.9196Z" fill="#64A8F0"/>
<path fill-rule="evenodd" clip-rule="evenodd" d="M53.6635 50.7441C55.0316 51.6561 55.791 52.72 55.791 55.4553V70.6561H50.9273V68.3759C50.3195 69.8957 48.648 70.9595 46.3669 70.9595C44.3911 70.9595 41.3506 70.1991 41.3506 65.488C41.3506 61.0802 44.2394 60.1682 47.2799 58.8001C50.3195 57.432 50.6229 57.2803 50.6229 56.2156C50.6229 55.1519 50.6229 54.2398 50.6229 52.8717C50.6229 51.3518 49.8627 50.7441 48.3437 50.8959C47.7351 50.8959 46.6712 51.2002 46.6712 51.9596C46.5196 53.0243 47.5833 53.0243 47.7351 54.3915C47.8876 56.3682 46.2153 57.1277 44.6954 57.1277C43.6316 56.976 42.4152 56.3682 42.2627 54.6958C42.1109 52.1114 45.1514 49.832 49.4074 49.832C51.3833 49.832 52.5988 50.1363 53.6635 50.7441ZM50.6229 58.344L48.9515 59.4079C47.2799 60.4716 46.9756 61.8398 46.823 63.3596C46.6712 64.576 46.6712 65.7915 46.823 67.4638C46.823 69.288 47.8876 69.5914 48.7988 69.1354C50.0152 68.6793 50.6229 66.8561 50.6229 64.576C50.6229 64.576 50.6229 59.1036 50.6229 58.344Z" fill="#64A8F0"/>
<path fill-rule="evenodd" clip-rule="evenodd" d="M90.4471 55.9127C90.4471 51.6567 88.1673 49.5283 84.8233 49.8326C83.1517 49.9843 81.7837 50.7447 81.0233 51.8084V45.8809H75.8552V59.8644C75.8552 65.0324 72.2078 69.8962 68.5596 69.7437C65.9751 69.7437 65.3674 67.7678 65.064 65.6402C64.6079 62.5997 64.6079 59.1041 64.9113 55.3041C65.2156 52.8722 65.8234 50.8964 67.6475 50.8964C69.0157 50.8964 69.1673 51.8084 68.5596 52.4162C67.9509 53.1765 67.0398 53.936 67.4958 55.6084C67.9509 57.4325 70.8389 57.7359 72.2078 56.3687C73.2717 55.1524 73.1199 53.1765 72.3596 51.9601C71.4475 50.4403 69.9277 49.8326 67.6475 49.8326C64.7596 49.8326 59.2881 52.4162 59.2881 60.6248C59.2881 69.4402 64.9113 70.96 68.1036 70.96C71.7518 70.96 74.9432 67.7678 75.8552 65.1842V70.6566H81.0233V55.3041C81.0233 53.7843 81.3276 52.8722 82.0871 52.1119C82.6958 51.6567 83.4552 51.5041 83.9113 51.6567C85.1276 51.9601 85.1276 53.4799 85.1276 55.3041V70.6566H90.4471V55.9127Z" fill="#64A8F0"/>
<path fill-rule="evenodd" clip-rule="evenodd" d="M37.2476 17V25.6637H36.1837C35.2717 21.4077 33.2959 18.2155 30.5597 18.0638C28.7355 17.912 27.6727 18.9758 26.7597 20.4966C25.8485 22.3198 25.3916 26.1198 25.3916 30.6801C25.3916 34.9361 25.5442 38.1274 26.0002 40.4076C26.3036 41.4714 27.064 43.1438 29.0398 43.1438C30.1036 43.1438 30.864 42.8395 31.32 42.2318C32.0804 41.3197 32.232 39.4956 32.232 38.2801C32.232 36.3042 32.232 35.6955 32.232 34.1757C32.232 32.6559 31.776 31.7438 31.0156 31.2878C30.4079 30.9835 29.4958 30.9835 29.0398 30.8318V29.768H37.5519V51.5032H36.4872C36.0321 49.8317 35.7277 48.6153 34.9682 47.2472C34.2079 45.88 32.8398 44.3602 30.5597 44.3602C28.1278 44.2076 26.3036 45.7282 26.3036 48.0076C26.3036 51.0481 28.1278 51.8075 31.4717 53.6308C34.6639 55.4549 38.7674 56.9756 38.7674 62.2954C38.7674 67.4635 34.3596 70.6557 29.3442 70.6557C28.2794 70.6557 21.2882 70.6557 21.2882 70.6557V60.1679H22.3519C23.7201 68.0713 27.064 69.4393 29.3442 69.4393C32.232 69.4393 33.5993 67.6152 33.5993 65.0316C33.4475 61.6868 31.1683 60.4713 27.976 58.7997C23.4167 56.2153 21.2882 54.9989 21.2882 50.7438C21.4399 47.0955 24.3287 44.8153 27.52 43.9041C20.8321 43.1438 18.8563 37.0646 19.008 30.5274C19.008 23.9922 22.808 17 30.2553 17C33.5993 17 37.2476 17 37.2476 17Z" fill="#64A8F0"/>
</svg>
