<svg width="170" height="90" viewBox="0 0 170 90" fill="none" xmlns="http://www.w3.org/2000/svg">
<path d="M25.3014 29.0009H16.3776V29.7626H19.2208V44.5708C19.2208 49.0155 17.9887 50.2685 15.2388 50.2685C13.5059 50.2685 13.224 48.9564 13.224 48.2709C13.224 46.656 13.1307 45.6619 11.6549 45.6619C10.1752 45.6619 10 47.1587 10 47.6215C10 49.6591 11.5768 51.2207 15.6311 51.2207C20.4548 51.2207 22.3668 49.5887 22.3668 44.1727V29.755L25.3014 29.7626V29.0009Z" fill="#4D2B1A"/>
<path d="M25.9013 47.7802C25.4081 47.7802 24.9948 47.9402 24.6635 48.2829C24.3169 48.6219 24.1455 49.0275 24.1455 49.5265C24.1455 50.0159 24.3169 50.4139 24.6635 50.7414C25.0101 51.088 25.4233 51.2461 25.9013 51.2461C26.3945 51.2461 26.8059 51.088 27.1601 50.7414C27.4971 50.4139 27.6666 50.0159 27.6666 49.5265C27.6666 49.0275 27.4971 48.62 27.1601 48.2829C26.8135 47.9402 26.4098 47.7802 25.9013 47.7802Z" fill="#4D2B1A"/>
<path d="M45.0246 47.7802C44.5332 47.7802 44.12 47.9402 43.7829 48.2829C43.4401 48.6219 43.2764 49.0275 43.2764 49.5265C43.2764 50.0159 43.4401 50.4139 43.7829 50.7414C44.139 51.088 44.5408 51.2461 45.0246 51.2461C45.5159 51.2461 45.9348 51.088 46.2852 50.7414C46.6318 50.4139 46.7956 50.0159 46.7956 49.5265C46.7956 49.0275 46.6318 48.62 46.2852 48.2829C45.9386 47.9402 45.5197 47.7802 45.0246 47.7802Z" fill="#4D2B1A"/>
<path d="M39.4801 29.0004H30.7411V29.7621H33.3062V46.6536C33.3062 47.979 33.23 48.0362 33.0834 48.4266C32.9196 48.8569 32.5635 49.194 32.0303 49.413C31.6361 49.5806 31.0382 49.6701 30.2402 49.6949V50.668H39.6439V49.6949C38.8459 49.6701 38.2385 49.5806 37.8385 49.4397C37.2787 49.215 36.9149 48.895 36.7397 48.4494C36.5836 48.0743 36.4979 47.7372 36.4979 47.0688V41.569L38.8288 41.5557C45.5854 41.5557 47.484 38.8934 47.484 35.2562C47.484 31.577 46.3224 29.0004 39.4801 29.0004ZM38.288 40.7311H36.4979V29.8574L38.1185 29.8364C43.3288 29.8364 44.4714 31.9788 44.4714 35.4561C44.4714 38.9487 42.4185 40.7311 38.288 40.7311Z" fill="#4D2B1A"/>
<path d="M74.3677 48.3713C74.2458 47.979 74.1848 47.5049 74.1848 46.8955V29.764H76.4472V29.0004H70.9341C70.8561 29.2004 64.2804 45.5586 64.2804 45.5586C64.2499 45.6196 64.1909 45.6557 64.1318 45.6557C64.0576 45.6557 64.0023 45.6196 63.9719 45.5586C63.9719 45.5586 56.9791 29.2004 56.8973 29.0004H50.7672V29.7659H53.3076V46.229L53.2485 47.7619C53.2086 48.1657 53.081 48.5237 52.8848 48.8131C52.6753 49.1236 52.3421 49.3616 51.9022 49.5177C51.6089 49.6073 51.1766 49.6758 50.6377 49.6834V50.668H56.8706V49.6949C56.3507 49.6758 56.1317 49.6206 55.8232 49.5177C55.3757 49.3711 55.0386 49.1483 54.8177 48.8227C54.6178 48.5389 54.4902 48.1752 54.4464 47.7619C54.4464 47.7619 54.3759 46.2366 54.3759 46.229V32.0321H54.7358C54.7358 32.0321 62.6331 50.4661 62.715 50.668H63.3777L70.8484 32.2397H71.0427V46.8955C71.0427 47.5372 70.9722 48.0267 70.8484 48.4094C70.6999 48.8569 70.38 49.1959 69.9191 49.4282C69.5763 49.5787 69.0527 49.6701 68.3652 49.6949V50.668H76.889V49.6949C76.2092 49.6587 75.6798 49.5673 75.3236 49.4073C74.8285 49.1616 74.5048 48.8208 74.3677 48.3713Z" fill="#4D2B1A"/>
<path d="M85.8347 34.7961C81.2814 34.7961 78.4287 37.8126 78.4287 43.0857C78.4287 50.7888 84.4407 51.3105 85.7299 51.3105C88.297 51.3105 93.1626 49.7052 93.1626 42.9353C93.1626 37.6641 90.049 34.7961 85.8347 34.7961ZM85.7757 50.3508C82.3536 50.3508 81.8261 48.6426 81.8261 43.1676C81.8261 38.9362 82.0889 35.7578 85.7757 35.7578C89.7557 35.7578 89.769 39.0428 89.769 42.9029C89.769 48.4407 88.8245 50.3508 85.7757 50.3508Z" fill="#4D2B1A"/>
<path d="M105.06 35.0333C102.336 35.0333 101.399 36.6387 100.653 38.2783C100.653 38.2783 100.455 38.2574 100.44 38.2707C100.417 38.2783 99.8931 35.1628 99.8931 35.1628H94.7305V35.9817H97.5717V39.2762V46.6536C97.5717 47.7067 97.5203 48.5389 97.2442 48.9788C96.9281 49.493 96.2787 49.6949 95.1951 49.6949H94.7305V50.668H103.561V49.6949H103.081C101.925 49.6949 101.329 49.4397 101.02 48.9407C100.741 48.4951 100.619 47.7448 100.619 46.6536V41.1272C100.619 39.2534 102.117 37.1205 103.81 37.1205C105.579 37.1205 105.637 39.6609 107.537 38.7468C108.891 38.0974 108.59 35.0333 105.06 35.0333Z" fill="#4D2B1A"/>
<path d="M140.21 49.09C139.269 49.09 138.965 48.5644 138.902 47.6827L138.843 45.7098V39.2103C138.843 37.8125 138.612 36.8737 137.792 36.0453C136.982 35.2226 135.405 34.7961 133.135 34.7961C130.945 34.7961 129.323 35.2017 128.295 35.9939C127.282 36.7575 126.899 37.4698 126.899 38.481C126.899 38.9532 127.019 39.2884 127.282 39.5093C127.554 39.7435 127.862 39.8521 128.247 39.8521C129.123 39.8521 129.609 39.4103 129.791 38.2582C129.932 37.3955 130.117 36.9099 130.547 36.4643C130.989 35.9939 131.694 35.7578 132.646 35.7578C133.754 35.7578 134.539 36.0529 134.973 36.6509C135.383 37.2108 135.588 37.9706 135.588 38.9114V41.5089C132.764 41.766 126.088 42.2992 126.385 47.3876C126.505 49.3757 128.253 51.1182 130.517 51.1182C133.025 51.1182 134.606 49.6956 135.687 48.5587C135.859 49.6309 136.86 50.9296 138.689 50.9296C140.747 50.9296 141.975 49.9241 142.113 47.4047H141.581C141.446 48.4959 140.774 49.09 140.21 49.09ZM135.588 47.4485C135.588 47.5056 135.583 47.5399 135.533 47.5761L135.476 47.6332C133.96 49.0024 132.802 49.4938 131.961 49.4938C129.791 49.4938 129.472 47.6865 129.472 46.7934C129.472 43.9007 133.425 42.4648 135.588 42.4648V47.4485Z" fill="#4D2B1A"/>
<path d="M158.248 48.9922C158.623 49.472 159.175 49.6301 160.108 49.6949V50.668H152.76V49.7025C153.297 49.6587 153.716 49.5444 153.984 49.3597C154.344 49.114 154.451 48.737 154.542 48.2704C154.605 47.861 154.632 47.263 154.632 46.4137V41.3462C154.632 40.116 154.546 38.5678 154.125 37.7337C153.759 36.991 153.131 36.6273 151.973 36.6273C150.68 36.6273 149.528 37.2405 148.894 38.3564C148.321 39.3771 148.324 41.0263 148.324 42.7402V46.8345C148.324 47.8876 148.46 48.6094 148.759 49.0283C149.029 49.4206 149.549 49.6301 150.32 49.6853V50.668H142.691V49.6949C143.284 49.6682 143.727 49.5996 144.017 49.472C144.478 49.2797 144.782 48.956 144.908 48.4818C145.026 48.0876 145.097 47.4896 145.097 46.6631V35.9779L142.691 35.9722V35.1705L147.502 35.1628L148.046 37.9756L148.288 37.9698C148.901 36.7644 150.248 34.98 153.346 34.98C154.211 34.98 154.997 35.1476 155.675 35.4923C156.349 35.837 156.888 36.3607 157.279 37.0577C157.66 37.768 157.781 38.6383 157.781 39.6495V46.6765C157.781 47.4687 157.867 48.5046 158.248 48.9922Z" fill="#4D2B1A"/>
<path d="M123.776 34.1709C123.319 34.3156 123.022 34.725 122.85 35.4049C122.74 36.0352 122.494 36.4009 122.18 36.5018C121.862 36.5951 121.319 36.6027 121.083 36.4218C120.289 35.6886 118.773 34.7955 116.103 34.7955C111.805 34.7955 109.91 37.8596 109.91 40.6475C109.91 43.9173 111.169 45.5055 113.932 46.0882C114.104 46.1168 114.104 46.3091 113.953 46.3434C111.601 46.8138 109.509 47.5051 109.509 49.7465C109.509 51.0947 110.284 51.8317 111.276 52.2392C112.377 52.6868 113.902 52.9172 115.844 52.9572C117.532 52.9724 118.726 53.0314 119.514 53.1209C120.352 53.2181 121.015 53.4618 121.514 53.8217C122.028 54.2064 122.294 54.7872 122.294 55.5509C122.294 56.5868 121.733 57.4152 120.632 58.0341C119.602 58.6035 118.198 58.912 116.444 58.912C114.953 58.912 113.727 58.7521 112.615 58.0589C111.794 57.5447 111.634 56.5545 111.805 55.8308C111.965 55.1034 111.704 54.3378 110.855 54.1931C110.39 54.1169 109.809 54.3626 109.533 54.7872C109.282 55.1795 109.196 55.6461 109.196 56.2041C109.196 58.0456 110.621 58.912 111.706 59.2282C113.363 59.7309 114.466 59.8623 115.993 59.8623C118.008 59.8623 119.659 59.5462 120.828 58.952C122.005 58.3617 122.829 57.6304 123.264 56.7963C123.724 55.9565 123.945 55.0976 123.945 54.275C123.945 53.159 123.696 52.2545 123.227 51.5803C121.693 49.4722 119.514 49.7465 114.614 49.5179C112.251 49.5179 111.794 49.0895 111.794 48.3658C111.794 47.2937 112.674 46.8785 116.08 46.3548C119.444 45.8349 122.574 44.599 122.574 40.499C122.574 39.3202 122.298 38.3052 121.969 37.5949C122.666 37.7472 123.3 37.7472 123.898 37.5568C124.578 37.3435 125.018 37.0064 125.271 36.5284C125.528 36.0505 125.625 35.5039 125.513 35.0526C125.307 34.108 124.6 33.9138 123.776 34.1709ZM116.185 45.4636C114.18 45.4636 113.028 44.7361 113.028 40.6475C113.028 37.7701 114.031 35.6296 116.185 35.6296C118.686 35.6296 119.421 37.5777 119.421 40.5885C119.421 44.8961 118.059 45.4636 116.185 45.4636Z" fill="#4D2B1A"/>
</svg>
