<svg width="170" height="90" viewBox="0 0 170 90" fill="none" xmlns="http://www.w3.org/2000/svg">
<path fill-rule="evenodd" clip-rule="evenodd" d="M96.3437 50.068C96.3437 60.7602 90.5116 62.0377 84.6795 62.0377C74.6446 62.0377 72.5154 56.9092 72.5154 49.5681V28.8688H68.8125V26.8692H82.8281V28.8688H78.8474V48.9664C78.8474 56.0575 80.6896 59.5845 85.7812 59.5845C90.9745 59.5845 93.5017 57.0202 93.5017 49.6422V28.8688H89.7618V26.8692H99.7227V28.8688H96.3437V50.068ZM106.147 59.6493V28.8595H102.25V26.8692H117.793C124.403 26.8692 127.68 30.6091 127.68 34.9879C127.68 39.6628 123.449 42.2919 119.672 43.0787C127.004 43.7545 128.994 48.4572 128.994 51.9195C128.994 58.9735 122.986 61.6489 117.08 61.6489H102V59.6493H106.147ZM121.338 35.3859C121.338 32.1459 119.672 28.8595 116.006 28.8595H111.97V42.2271H115.58C119.459 42.2271 121.338 38.95 121.338 35.3859ZM122.588 51.9195C122.588 47.2816 120.598 44.1804 115.932 44.1804H111.97V59.6493H115.192C120.135 59.6493 122.588 56.724 122.588 51.9195ZM144.5 28.3967C140.834 28.3967 138.483 30.5721 138.483 34.3491C138.483 37.7743 142.186 39.4128 145.778 40.6256C147.907 41.3754 150.61 42.3659 152.462 44.1526C154.489 46.0781 155.591 48.6424 155.526 51.8824C155.378 57.9367 151.147 62.0377 143.676 62.0747C140.871 62.0747 136.493 61.436 133.864 59.8993L133.577 50.7808H135.78C135.956 56.9092 138.844 60.1122 143.889 60.1122C147.944 60.1122 150.184 57.4091 150.184 53.271C150.184 49.707 147.231 48.1795 142.751 46.6798C141.297 46.1799 138.418 45.1154 136.391 43.1158C134.576 41.3013 133.715 39.0148 133.715 36.5986C133.715 29.5075 138.77 26.4434 145.028 26.4434C147.518 26.4434 151.258 27.3321 153.424 28.5818L153.637 36.4875H151.434C150.971 30.8591 148.518 28.3967 144.5 28.3967Z" fill="#E60000"/>
<path fill-rule="evenodd" clip-rule="evenodd" d="M51.3067 33.9043L50.381 34.6819L51.3623 37.8849L48.4277 36.2834L47.4464 37.0518L50.6958 38.8106L47.2428 41.5971L46.3171 40.3566L47.5483 39.3753L46.6225 38.2922L45.3913 39.2735L44.4656 38.0886L45.6968 37.1073L44.7711 35.9224L38.4391 41.1805L44.4656 46.0313L45.5394 44.689C46.3171 44.7446 46.8817 45.3093 47.1872 46.0313L46.1134 47.3737L46.7799 47.8921C48.2703 46.5497 50.2329 45.6703 52.2417 45.6703C56.4631 45.6703 59.7587 49.1325 59.7587 53.3631C59.7587 54.7517 59.3976 56.2514 58.62 57.4826L59.7587 58.3621C59.7031 59.186 58.9348 60.0654 58.1571 60.2691L57.074 59.3989C55.5836 60.843 53.6303 61.6114 51.5659 61.6114C47.3446 61.6114 44.049 58.2602 44.049 53.9834C44.049 52.5855 44.4656 51.1414 45.0766 49.9564L44.4656 49.3825L43.3825 50.8266C42.6049 50.7248 41.9383 50.2064 41.7347 49.3825L42.8178 48.0957L37.717 43.8651V50.5674L39.4111 50.623C39.624 50.8822 39.7721 51.2432 39.7721 51.6598C39.7721 52.0208 39.624 52.4281 39.4666 52.7429H37.717V53.5668C41.4199 54.187 44.5119 57.3345 44.5119 61.1485C44.5119 65.1199 41.4755 68.2674 37.717 68.8876V70.2299C37.356 70.4336 36.8931 70.591 36.4765 70.591C36.0137 70.591 35.5045 70.4336 35.0879 70.2299V68.8876C31.3295 68.2674 28.3949 65.1199 28.3949 61.1485C28.3949 57.3345 31.3295 54.187 35.0879 53.6131V52.7429H33.3383C33.1346 52.4281 33.0328 52.0208 33.0328 51.6598C33.0328 51.2463 33.1346 50.8822 33.3383 50.5674H35.0879V43.8651L29.9409 48.0957L31.0703 49.3825C30.8111 50.2064 30.1445 50.7248 29.3762 50.8266L28.2931 49.3825L27.6173 49.9564C28.3394 51.1414 28.7004 52.5855 28.7004 53.9834C28.7004 58.2602 25.4048 61.6114 21.1835 61.6114C19.1746 61.6114 17.1658 60.843 15.7216 59.3989L14.5923 60.2691C13.8702 60.0654 13.1018 59.186 13 58.3621L14.0738 57.4826C13.4073 56.2514 13 54.7517 13 53.3631C13 49.1325 16.2956 45.6703 20.5169 45.6703C22.5721 45.6703 24.5346 46.5497 26.025 47.8921L26.6453 47.4292L25.5622 46.0313C25.8214 45.3093 26.4879 44.7909 27.2655 44.689L28.3394 46.0313L34.3659 41.1805L28.0339 35.9224L27.1081 37.1073L28.3394 38.0886L27.4136 39.2735L26.1824 38.2922L25.2567 39.3753L26.4416 40.3566L25.5066 41.5971L22.1092 38.8106L25.303 37.0518L24.3772 36.2834L21.4427 37.8849L22.4239 34.6819L21.4982 33.9043L20.4151 37.4128L16.9621 34.6263L17.8879 33.4969L19.0728 34.4782L20.0541 33.3396L18.8136 32.2565L19.7393 31.1734L20.9798 32.0991L21.85 31.016L19.1746 28.9053C19.4338 28.0259 19.9985 27.3038 20.8224 26.7854L35.0879 38.4496V30.655H33.6438V32.1546H32.2089V30.655H30.7092V32.1546H29.2188V27.7667L32.6162 29.2108V27.9703L29.478 26.6836L32.6162 25.4431V24.2582L29.2188 25.6005V21.1662H30.7092V22.7585H32.2089V21.1662H33.6438V22.7585H35.0879V19.2592C35.5045 19.1018 35.9674 19 36.4302 19C36.8376 19 37.3004 19.1018 37.717 19.2592V38.4496L51.9825 26.7854C52.7509 27.3038 53.3156 28.0259 53.6303 28.9053L50.8994 31.016L51.8252 32.0991L53.0656 31.1734L53.9914 32.2565L52.7509 33.3396L53.6766 34.4782L54.9171 33.4969L55.8428 34.6263L52.3898 37.4128L51.3067 33.9043ZM22.1647 55.0109C22.1647 56.2514 23.0905 57.0198 24.1736 57.1216L22.3684 58.5194C21.1279 58.0566 19.9985 56.5569 19.9985 55.2701C19.9985 54.8536 20.1004 54.5943 20.2022 54.2889C20.0541 54.2889 19.943 54.3444 19.8412 54.3444C18.1934 54.3444 16.8048 52.7892 16.4993 51.1969L18.3507 49.7435C18.2952 49.9564 18.2952 50.1046 18.2952 50.2619C18.2952 51.2987 19.2765 52.2245 20.304 52.2245C21.3871 52.2245 22.4147 51.2987 22.4147 50.2064C22.4147 48.8733 21.3871 47.9939 20.1004 47.9939C17.5824 47.9939 15.1107 50.4193 15.1107 53.6223C15.1107 54.5481 15.3143 55.4275 15.7216 56.1959L16.8603 55.3164C17.6287 55.6775 18.2489 56.4551 18.4526 57.3345L17.3232 58.2047C18.4063 59.1397 19.7393 59.547 21.1279 59.547C24.0162 59.547 26.3305 57.2327 26.3305 55.1683C26.3305 53.9834 25.5066 52.9465 24.2754 52.9465C23.1368 52.9465 22.1647 53.826 22.1647 55.0109ZM37.4578 59.4452C37.4578 60.5838 38.3835 61.5096 39.4666 61.5096C40.235 61.5096 40.5497 61.2041 41.1144 60.7412V63.0555C40.5497 63.3703 39.9758 63.5277 39.3648 63.5277C38.1243 63.5277 37.0968 63.1574 36.4302 62.0743C35.7082 63.1574 34.6714 63.5277 33.4401 63.5277C32.8754 63.5277 32.2552 63.3703 31.6905 63.0555V60.7412C32.1997 61.2504 32.6162 61.5096 33.3383 61.5096C34.4677 61.5096 35.3471 60.5838 35.3471 59.4452C35.3471 58.3621 34.6251 57.3808 33.4401 57.3808C31.3295 57.3808 30.45 59.3989 30.45 61.2504C30.45 63.9905 32.4589 66.3048 35.0879 66.777V65.3791C35.4953 65.1755 35.9581 65.1199 36.3747 65.1199C36.8376 65.1199 37.3004 65.1755 37.717 65.3791V66.777C40.1332 66.4159 42.3457 63.8331 42.3457 61.2504C42.3457 59.3433 41.5773 57.3808 39.3648 57.3808C38.2262 57.3808 37.4578 58.3621 37.4578 59.4452ZM50.2792 50.2064C50.2792 51.2432 51.3623 52.2245 52.4454 52.2245C53.473 52.2245 54.4542 51.2987 54.4542 50.2619C54.4542 50.1046 54.3987 49.9564 54.3987 49.7435L56.2039 51.1969C55.8891 52.9465 54.3431 54.4925 52.5472 54.2889C52.6491 54.5943 52.6953 54.8536 52.6953 55.2701C52.6953 56.5569 51.5659 58.0566 50.3347 58.5194L48.5295 57.1216C49.6589 57.0198 50.5847 56.2514 50.5847 55.0109C50.5847 53.826 49.5571 52.9465 48.4277 52.9465C47.2428 52.9465 46.3633 53.9834 46.3633 55.2146C46.3633 56.7143 48.1685 59.547 51.6215 59.547C53.0101 59.547 54.3431 59.1397 55.38 58.2047L54.2413 57.3345C54.5005 56.4551 55.0189 55.6775 55.8428 55.3164L56.9722 56.1959C57.3888 55.4275 57.6387 54.5481 57.6387 53.6223C57.6387 51.1414 55.741 47.9939 52.6953 47.9939C51.4086 47.9939 50.2792 48.8733 50.2792 50.2064Z" fill="black"/>
</svg>
