<svg width="401" height="301" viewBox="0 0 401 301" fill="none" xmlns="http://www.w3.org/2000/svg">
<mask id="mask0_16435_101197" style="mask-type:alpha" maskUnits="userSpaceOnUse" x="-1" y="0" width="402" height="301">
<path d="M400 0.5H0V300.5H400V0.5Z" fill="#FF0202" stroke="white"/>
</mask>
<g mask="url(#mask0_16435_101197)">
<path d="M223.902 303.239C272.109 303.239 311.189 264.151 311.189 215.932C311.189 167.715 272.109 128.626 223.902 128.626C175.696 128.626 136.616 167.715 136.616 215.932C136.616 264.151 175.696 303.239 223.902 303.239Z" stroke="white" stroke-miterlimit="10"/>
<path d="M309.6 128.631H223.939V216.202H309.6C333.777 216.202 353.376 196.598 353.376 172.416C353.376 148.235 333.777 128.631 309.6 128.631Z" stroke="white" stroke-miterlimit="10"/>
<path d="M223.939 216.202V303.774H320.024C344.2 303.774 363.8 284.17 363.8 259.989C363.8 235.806 344.2 216.202 320.024 216.202H223.939Z" stroke="white" stroke-miterlimit="10"/>
<path d="M311.081 128.631H441.962" stroke="white" stroke-miterlimit="10"/>
<path d="M310.954 -258.826V616.242" stroke="white" stroke-miterlimit="10"/>
<path d="M223.884 -258.826V616.242" stroke="white" stroke-miterlimit="10"/>
<path d="M310.943 -22.0635L223.874 52.8875V52.975L310.943 127.928" stroke="white" stroke-miterlimit="10"/>
<path d="M223.874 -258.826V164.396C223.874 224.651 175.04 273.495 114.801 273.495C54.5612 273.495 5.729 224.649 5.729 164.396V-258.826" stroke="white" stroke-miterlimit="10"/>
</g>
</svg>
