<svg width="1440" height="1080" viewBox="0 0 1440 1080" fill="none" xmlns="http://www.w3.org/2000/svg">
<mask id="mask0_16986_57824" style="mask-type:alpha" maskUnits="userSpaceOnUse" x="0" y="0" width="1440" height="1080">
<rect width="1440" height="1080" fill="#D9D9D9"/>
</mask>
<g mask="url(#mask0_16986_57824)">
<path d="M842.454 616.794C972.589 616.794 1078.08 511.298 1078.08 381.163C1078.08 251.027 972.589 145.532 842.454 145.532C712.318 145.532 606.822 251.027 606.822 381.163C606.822 511.298 712.318 616.794 842.454 616.794Z" stroke="white" stroke-miterlimit="10"/>
<path d="M1226.18 381.162H842.453V616.793H1226.18C1291.25 616.793 1344 564.042 1344 498.972C1344 433.902 1291.25 381.151 1226.18 381.151V381.162Z" stroke="white" stroke-miterlimit="10"/>
<path d="M842.453 616.791V852.422H1254.82C1319.89 852.422 1372.64 799.671 1372.64 734.601C1372.64 669.531 1319.89 616.78 1254.82 616.78H842.453V616.791Z" stroke="white" stroke-miterlimit="10"/>
<path d="M842.453 -801.999V703.745C842.453 785.083 776.517 851.019 695.179 851.019C613.842 851.019 547.905 785.083 547.905 703.745V-801.999" stroke="white" stroke-miterlimit="10"/>
<path d="M1195.75 616.792H1725.94" stroke="white" stroke-miterlimit="10"/>
<path d="M1195.91 -801.999V1786.71" stroke="white" stroke-miterlimit="10"/>
<path d="M1726.12 -795.589L842.453 380.834V381.476L1726.12 1557.91" stroke="white" stroke-miterlimit="10"/>
</g>
</svg>
