<svg width="400" height="300" viewBox="0 0 400 300" fill="none" xmlns="http://www.w3.org/2000/svg">
<mask id="mask0_16986_58433" style="mask-type:alpha" maskUnits="userSpaceOnUse" x="0" y="0" width="400" height="300">
<rect width="400" height="300" fill="#FF0202"/>
</mask>
<g mask="url(#mask0_16986_58433)">
<path d="M309.772 145.966C349.938 145.966 382.499 113.405 382.499 73.2388C382.499 33.0727 349.938 0.511719 309.772 0.511719C269.606 0.511719 237.045 33.0727 237.045 73.2388C237.045 113.405 269.606 145.966 309.772 145.966Z" stroke="white" stroke-miterlimit="10"/>
<path d="M309.771 -171.845V152.134C309.771 192.301 277.21 224.862 237.043 224.862C196.877 224.862 164.316 192.301 164.316 152.134V-171.845" stroke="white" stroke-miterlimit="10"/>
<path d="M470.51 68.0596H309.771V145.976H470.51C492.027 145.976 509.468 128.535 509.468 107.018C509.468 85.5012 492.027 68.0596 470.51 68.0596Z" stroke="white" stroke-miterlimit="10"/>
<path d="M309.769 145.976V224.862H488.591C510.108 224.862 527.55 207.42 527.55 185.903V184.932C527.55 163.416 510.108 145.974 488.591 145.974H309.769V145.976Z" stroke="white" stroke-miterlimit="10"/>
<path d="M309.769 -171.845V578.155" stroke="white" stroke-miterlimit="10"/>
<path d="M237.042 -171.845V578.155" stroke="white" stroke-miterlimit="10"/>
<path d="M309.769 224.86L237.042 314.022V314.127L309.769 403.287" stroke="white" stroke-miterlimit="10"/>
</g>
</svg>
